<svg preserveAspectRatio="none" xmlns="http://www.w3.org/2000/svg"
  viewBox="0 0 1440 460" fill="none">
  <g style="mix-blend-mode:difference" opacity="0.6" filter="url(#filter0_d_430_56285)">
    <path
      d="M0 1126H3604V89.8303C3444.75 -10.517 2976.28 141.642 2486.84 46.2506C1897.05 -50.6971 1728.19 36.0305 1126.78 104.841C815.784 140.423 535.128 -58.78 0 89.8303V1126Z"
      fill="url(#paint0_linear_430_56285)" shape-rendering="crispEdges" />
    <path
      d="M0 1126H3604V89.8303C3444.75 -10.517 2976.28 141.642 2486.84 46.2506C1897.05 -50.6971 1728.19 36.0305 1126.78 104.841C815.784 140.423 535.128 -58.78 0 89.8303V1126Z"
      fill="url(#paint1_linear_430_56285)" shape-rendering="crispEdges" />
    <path
      d="M0 1126H3604V89.8303C3444.75 -10.517 2976.28 141.642 2486.84 46.2506C1897.05 -50.6971 1728.19 36.0305 1126.78 104.841C815.784 140.423 535.128 -58.78 0 89.8303V1126Z"
      fill="url(#paint2_linear_430_56285)" fill-opacity="0.8" shape-rendering="crispEdges" />
    <path
      d="M0 1126H3604V89.8303C3444.75 -10.517 2976.28 141.642 2486.84 46.2506C1897.05 -50.6971 1728.19 36.0305 1126.78 104.841C815.784 140.423 535.128 -58.78 0 89.8303V1126Z"
      fill="url(#paint3_linear_430_56285)" fill-opacity="0.8" shape-rendering="crispEdges" />
    <path
      d="M0 1126H3604V89.8303C3444.75 -10.517 2976.28 141.642 2486.84 46.2506C1897.05 -50.6971 1728.19 36.0305 1126.78 104.841C815.784 140.423 535.128 -58.78 0 89.8303V1126Z"
      stroke="#0A0A0A" stroke-width="2" shape-rendering="crispEdges" />
  </g>
  <defs>
    <filter id="filter0_d_430_56285" x="-3" y="0.00170898" width="3610" height="1129"
      filterUnits="userSpaceOnUse" color-interpolation-filters="sRGB">
      <feFlood flood-opacity="0" result="BackgroundImageFix" />
      <feColorMatrix in="SourceAlpha" type="matrix"
        values="0 0 0 0 0 0 0 0 0 0 0 0 0 0 0 0 0 0 127 0" result="hardAlpha" />
      <feOffset />
      <feGaussianBlur stdDeviation="1" />
      <feComposite in2="hardAlpha" operator="out" />
      <feColorMatrix type="matrix" values="0 0 0 0 0 0 0 0 0 0 0 0 0 0 0 0 0 0 0.24 0" />
      <feBlend mode="normal" in2="BackgroundImageFix" result="effect1_dropShadow_430_56285" />
      <feBlend mode="normal" in="SourceGraphic" in2="effect1_dropShadow_430_56285" result="shape" />
    </filter>
    <linearGradient id="paint0_linear_430_56285" x1="223" y1="-31" x2="898.994" y2="963.364"
      gradientUnits="userSpaceOnUse">
      <stop offset="0.1202" stop-color="#0078D4" />
      <stop offset="0.647274" stop-color="#8661C5" />
      <stop offset="0.859734" stop-color="#C03BC4" />
      <stop offset="1" stop-color="#0078D4" stop-opacity="0.7" />
    </linearGradient>
    <linearGradient id="paint1_linear_430_56285" x1="1802" y1="1126" x2="1802" y2="3"
      gradientUnits="userSpaceOnUse">
      <stop offset="0.354167" stop-color="#141414" />
      <stop offset="1" stop-opacity="0" />
    </linearGradient>
    <linearGradient id="paint2_linear_430_56285" x1="723.59" y1="267" x2="1506.9" y2="265.86"
      gradientUnits="userSpaceOnUse">
      <stop offset="0.256858" stop-color="#141414" stop-opacity="0" />
      <stop offset="0.713358" stop-color="#141414" />
    </linearGradient>
    <linearGradient id="paint3_linear_430_56285" x1="-280.718" y1="458.5" x2="566.233" y2="455.84"
      gradientUnits="userSpaceOnUse">
      <stop offset="0.313725" stop-color="#141414" />
      <stop offset="1" stop-color="#141414" stop-opacity="0" />
    </linearGradient>
  </defs>
</svg>
