<svg preserveAspectRatio="none"  width="1440" height="1126" viewBox="0 0 1440 1126" fill="none"
  xmlns="http://www.w3.org/2000/svg">
  <g style="mix-blend-mode:difference" opacity="0.6" filter="url(#filter0_d_430_55714)">
    <path
      d="M0 0H3604V1036.17C3444.75 1136.52 2976.28 984.358 2486.84 1079.75C1897.05 1176.7 1728.19 1089.97 1126.78 1021.16C815.784 985.577 535.128 1184.78 0 1036.17V0Z"
      fill="url(#paint0_linear_430_55714)" shape-rendering="crispEdges" />
    <path
      d="M0 0H3604V1036.17C3444.75 1136.52 2976.28 984.358 2486.84 1079.75C1897.05 1176.7 1728.19 1089.97 1126.78 1021.16C815.784 985.577 535.128 1184.78 0 1036.17V0Z"
      fill="url(#paint1_linear_430_55714)" shape-rendering="crispEdges" />
    <path
      d="M0 0H3604V1036.17C3444.75 1136.52 2976.28 984.358 2486.84 1079.75C1897.05 1176.7 1728.19 1089.97 1126.78 1021.16C815.784 985.577 535.128 1184.78 0 1036.17V0Z"
      fill="url(#paint2_linear_430_55714)" fill-opacity="0.8" shape-rendering="crispEdges" />
    <path
      d="M0 0H3604V1036.17C3444.75 1136.52 2976.28 984.358 2486.84 1079.75C1897.05 1176.7 1728.19 1089.97 1126.78 1021.16C815.784 985.577 535.128 1184.78 0 1036.17V0Z"
      fill="url(#paint3_linear_430_55714)" fill-opacity="0.8" shape-rendering="crispEdges" />
    <path
      d="M0 0H3604V1036.17C3444.75 1136.52 2976.28 984.358 2486.84 1079.75C1897.05 1176.7 1728.19 1089.97 1126.78 1021.16C815.784 985.577 535.128 1184.78 0 1036.17V0Z"
      stroke="#0A0A0A" stroke-width="2" shape-rendering="crispEdges" />
  </g>
  <defs>
    <linearGradient id="paint0_linear_430_55714" x1="223" y1="1157" x2="898.994" y2="162.636"
      gradientUnits="userSpaceOnUse">
      <stop offset="0.1202" stop-color="#C03BC4" />
      <stop offset="0.258177" stop-color="#8661C5" />
      <stop offset="0.501114" stop-color="#0078D4" />
      <stop offset="1" stop-color="#0078D4" stop-opacity="0.7" />
    </linearGradient>
    <linearGradient id="paint1_linear_430_55714" x1="1802" y1="0" x2="1802" y2="1123"
      gradientUnits="userSpaceOnUse">
      <stop offset="0.354167" stop-color="#141414" />
      <stop offset="1" stop-opacity="0" />
    </linearGradient>
    <linearGradient id="paint2_linear_430_55714" x1="723.59" y1="859" x2="1506.9" y2="860.14"
      gradientUnits="userSpaceOnUse">
      <stop offset="0.256858" stop-color="#141414" stop-opacity="0" />
      <stop offset="0.713358" stop-color="#141414" />
    </linearGradient>
    <linearGradient id="paint3_linear_430_55714" x1="-280.718" y1="667.5" x2="566.233" y2="670.16"
      gradientUnits="userSpaceOnUse">
      <stop offset="0.313725" stop-color="#141414" />
      <stop offset="1" stop-color="#141414" stop-opacity="0" />
    </linearGradient>
  </defs>
</svg>
