<?xml version="1.0" encoding="utf-8"?>
<svg viewBox="200 200 30 30" xmlns="http://www.w3.org/2000/svg">
  <rect x="200" y="200" width="30" height="30" fill="#4A3665" />
  <path
    d="M 223.327 148.108 L 223.327 144.801 L 222.786 144.801 L 222.786 144.213 L 224.44 144.213 L 224.44 144.801 L 223.899 144.801 L 223.899 148.108 Z M 225.393 148.15 Q 225.157 148.15 225.001 148.072 Q 224.844 147.994 224.754 147.846 Q 224.664 147.697 224.626 147.488 Q 224.587 147.279 224.587 147.016 L 225.149 146.963 Q 225.149 147.09 225.158 147.208 Q 225.168 147.326 225.193 147.42 Q 225.218 147.514 225.267 147.57 Q 225.316 147.626 225.393 147.626 Q 225.52 147.626 225.573 147.508 Q 225.626 147.39 225.626 147.223 Q 225.626 147.056 225.539 146.876 Q 225.451 146.696 225.329 146.534 Q 225.123 146.258 224.968 146.022 Q 224.813 145.787 224.726 145.559 Q 224.64 145.331 224.64 145.082 Q 224.64 144.886 224.691 144.72 Q 224.741 144.554 224.838 144.431 Q 224.934 144.308 225.072 144.239 Q 225.21 144.17 225.388 144.17 Q 225.608 144.17 225.76 144.244 Q 225.912 144.319 226.006 144.456 Q 226.1 144.594 226.144 144.784 Q 226.188 144.973 226.188 145.204 L 225.626 145.257 Q 225.626 145.159 225.617 145.059 Q 225.608 144.96 225.584 144.878 Q 225.56 144.796 225.515 144.745 Q 225.47 144.695 225.398 144.695 Q 225.287 144.695 225.245 144.789 Q 225.202 144.883 225.202 145.055 Q 225.202 145.278 225.321 145.485 Q 225.441 145.691 225.642 145.967 Q 225.883 146.293 226.036 146.566 Q 226.188 146.839 226.188 147.17 Q 226.188 147.379 226.143 147.558 Q 226.098 147.737 226.001 147.87 Q 225.904 148.002 225.755 148.076 Q 225.605 148.15 225.393 148.15 Z M 226.495 148.108 L 226.495 144.213 L 227.067 144.213 Q 227.393 144.213 227.612 144.356 Q 227.83 144.499 227.939 144.761 Q 228.048 145.023 228.048 145.379 Q 228.048 145.734 227.934 145.991 Q 227.82 146.248 227.601 146.392 Q 227.383 146.537 227.067 146.55 L 227.067 148.108 Z M 227.067 145.967 Q 227.218 145.967 227.306 145.907 Q 227.393 145.848 227.432 145.718 Q 227.47 145.588 227.47 145.384 Q 227.47 145.177 227.432 145.047 Q 227.393 144.917 227.304 144.856 Q 227.216 144.796 227.067 144.796 Z"
    transform="matrix(5.135736, 0, 0, 3.484284, -942.612183, -293.795532)"
    fill="#fff" />
</svg>
