<?xml version="1.0" encoding="utf-8"?>
<svg viewBox="200 200 30 30" xmlns="http://www.w3.org/2000/svg">
  <rect x="200" y="200" width="30" height="30" fill="#4A3665" />
  <path
    d="M 223.327 148.108 L 223.327 144.801 L 222.786 144.801 L 222.786 144.213 L 224.44 144.213 L 224.44 144.801 L 223.899 144.801 L 223.899 148.108 Z M 225.391 148.15 Q 225.156 148.15 224.999 148.072 Q 224.843 147.994 224.753 147.846 Q 224.663 147.697 224.624 147.488 Q 224.586 147.279 224.586 147.016 L 225.148 146.963 Q 225.148 147.09 225.157 147.208 Q 225.166 147.326 225.191 147.42 Q 225.217 147.514 225.266 147.57 Q 225.315 147.626 225.391 147.626 Q 225.519 147.626 225.572 147.508 Q 225.625 147.39 225.625 147.223 Q 225.625 147.056 225.537 146.876 Q 225.45 146.696 225.328 146.534 Q 225.121 146.258 224.966 146.022 Q 224.811 145.787 224.725 145.559 Q 224.639 145.331 224.639 145.082 Q 224.639 144.886 224.689 144.72 Q 224.74 144.554 224.836 144.431 Q 224.933 144.308 225.071 144.239 Q 225.209 144.17 225.386 144.17 Q 225.606 144.17 225.758 144.244 Q 225.911 144.319 226.005 144.456 Q 226.099 144.594 226.143 144.784 Q 226.186 144.973 226.186 145.204 L 225.625 145.257 Q 225.625 145.159 225.615 145.059 Q 225.606 144.96 225.582 144.878 Q 225.558 144.796 225.513 144.745 Q 225.468 144.695 225.397 144.695 Q 225.285 144.695 225.243 144.789 Q 225.201 144.883 225.201 145.055 Q 225.201 145.278 225.32 145.485 Q 225.439 145.691 225.641 145.967 Q 225.882 146.293 226.034 146.566 Q 226.186 146.839 226.186 147.17 Q 226.186 147.379 226.141 147.558 Q 226.096 147.737 226 147.87 Q 225.903 148.002 225.753 148.076 Q 225.603 148.15 225.391 148.15 Z M 226.494 148.108 L 226.494 144.213 L 227.066 144.213 Q 227.392 144.213 227.611 144.356 Q 227.829 144.499 227.938 144.761 Q 228.047 145.023 228.047 145.379 Q 228.047 145.734 227.933 145.991 Q 227.819 146.248 227.6 146.392 Q 227.381 146.537 227.066 146.55 L 227.066 148.108 Z M 227.066 145.967 Q 227.217 145.967 227.305 145.907 Q 227.392 145.848 227.43 145.718 Q 227.469 145.588 227.469 145.384 Q 227.469 145.177 227.43 145.047 Q 227.392 144.917 227.303 144.856 Q 227.214 144.796 227.066 144.796 Z"
    transform="matrix(4.553588, 0, 0, 3.175088, -811.313782, -249.035522)"
    fill="#fff" />
</svg>
