<svg viewBox="0 0 16 16" fill="none" xmlns="http://www.w3.org/2000/svg">
  <g clip-path="url(#clip0_820_6407)">
    <path d="M13.762 8.446C13.6683 8.75751 13.5441 9.05898 13.391 9.346L13.432 9.387L14.632 11.269L13.268 12.633L11.386 11.433L11.345 11.392C11.058 11.5451 10.7565 11.6693 10.445 11.763V11.822L9.964 14H8.932C8.96974 13.8659 8.98892 13.7273 8.989 13.588V10H9C9.55126 10.0024 10.0925 9.85285 10.5644 9.56778C11.0362 9.28271 11.4204 8.87314 11.6747 8.38405C11.929 7.89495 12.0437 7.34523 12.006 6.79525C11.9684 6.24527 11.78 5.71629 11.4614 5.26639C11.1428 4.81648 10.7064 4.46306 10.2002 4.24491C9.69391 4.02677 9.13732 3.95233 8.59152 4.02979C8.04572 4.10724 7.53182 4.33358 7.10623 4.68397C6.68064 5.03435 6.35982 5.49523 6.179 6.016C6.148 6.016 6.118 6.005 6.088 6.005C5.89084 6.00455 5.69555 6.0432 5.51343 6.11873C5.33131 6.19426 5.16598 6.30515 5.027 6.445L3.234 8.237L2 7.964V6.036L4.179 5.554H4.238C4.33166 5.24249 4.45593 4.94102 4.609 4.654L4.568 4.613L3.368 2.731L4.732 1.368L6.614 2.568L6.655 2.609C6.94202 2.45593 7.24349 2.33166 7.555 2.238V2.179L8.036 0H9.964L10.446 2.179V2.238C10.7575 2.33166 11.059 2.45593 11.346 2.609L11.387 2.568L13.269 1.368L14.633 2.732L13.433 4.614L13.392 4.655C13.5451 4.94202 13.6693 5.24349 13.763 5.555H13.822L16 6.036V7.964L13.821 8.446H13.762Z" fill="#949494" />
    <path d="M10.25 7C10.25 7.16415 10.2177 7.3267 10.1548 7.47835C10.092 7.63001 9.99996 7.76781 9.88388 7.88388C9.76781 7.99996 9.63001 8.09203 9.47835 8.15485C9.3267 8.21767 9.16415 8.25 9 8.25H8.989V8.206C8.99013 7.92717 8.91304 7.65361 8.7665 7.41639C8.61996 7.17917 8.40984 6.9878 8.16 6.864L7.812 6.69C7.8772 6.42347 8.02943 6.1863 8.24461 6.01604C8.45979 5.84578 8.72562 5.75216 9 5.75C9.16415 5.75 9.3267 5.78233 9.47835 5.84515C9.63001 5.90797 9.76781 6.00004 9.88388 6.11612C9.99996 6.23219 10.092 6.36999 10.1548 6.52165C10.2177 6.6733 10.25 6.83585 10.25 7V7Z" fill="#767676" />
    <path d="M7.713 7.759L6.313 7.059C6.21912 7.01215 6.11289 6.99602 6.00933 7.01289C5.90578 7.02976 5.81015 7.07877 5.736 7.153L2.9 9.988L1.1 8.607C1.06648 8.58085 1.02677 8.5638 0.984726 8.55749C0.942681 8.55119 0.89972 8.55584 0.86 8.571L0.153 8.836C0.105296 8.85386 0.0641544 8.88581 0.03504 8.9276C0.00592569 8.9694 -0.00978331 9.01906 -0.0100002 9.07V12.724C-0.00978331 12.7749 0.00592569 12.8246 0.03504 12.8664C0.0641544 12.9082 0.105296 12.9401 0.153 12.958L0.86 13.223C0.89972 13.2382 0.942681 13.2428 0.984726 13.2365C1.02677 13.2302 1.06648 13.2131 1.1 13.187L2.9 11.806L5.737 14.642C5.81115 14.7162 5.90678 14.7652 6.01033 14.7821C6.11388 14.799 6.22012 14.7829 6.314 14.736L7.714 14.036C7.79695 13.9944 7.86669 13.9306 7.91544 13.8517C7.96418 13.7727 7.99 13.6818 7.99 13.589V8.206C7.9899 8.11312 7.96394 8.0221 7.91501 7.94314C7.86609 7.86419 7.79613 7.80043 7.713 7.759ZM0.989 11.9V9.9L1.989 10.9L0.989 11.9ZM5.989 12.364L4.082 10.9L5.989 9.433V12.364Z" fill="#7C53AC" />
  </g>
  <defs>
    <clipPath id="clip0_820_6407">
      <rect width="16" height="16" fill="white" />
    </clipPath>
  </defs>
</svg>