<svg viewBox="0 0 16 16" fill="none" xmlns="http://www.w3.org/2000/svg">
  <path opacity="0.1" d="M14.5 9.5V14.5H1.5V9.5H14.5Z" fill="#1F1F1F" />
  <path opacity="0.1" d="M14 6V9.038H2V6H14Z" fill="#1F1F1F" />
  <path d="M15 9.5V14.5L14.5 15H1.5L1 14.5V9.5H2V14H14V9.5H15Z" fill="#1F1F1F" />
  <path d="M4 9H5V12H4V9ZM11 9V12H12V9H11Z" fill="#1F1F1F" />
  <path d="M9 7H6.278V6H9V7ZM14.5 6H13V7H14V9H2V7H2.716V6H1.5L1 6.5V9.5L1.5 10H14.5L15 9.5V6.5L14.5 6Z" fill="#1F1F1F" />
  <path d="M13.957 1V2.971H12.971L12.479 2.479L11.986 2.971H11.493V4.759L11.986 5.252V8.224H10.014V5.252L10.507 4.759V2.971H9.521C9.39042 2.97126 9.26528 3.02332 9.17304 3.11575C9.0808 3.20818 9.029 3.33342 9.029 3.464C9.029 3.59475 8.97706 3.72015 8.8846 3.8126C8.79215 3.90506 8.66675 3.957 8.536 3.957C8.40525 3.957 8.27985 3.90506 8.1874 3.8126C8.09494 3.72015 8.043 3.59475 8.043 3.464C8.043 2.81051 8.3026 2.18378 8.76469 1.72169C9.22678 1.2596 9.85351 1 10.507 1H11.986L12.479 1.493L12.972 1H13.957ZM5.277 1V3.205H3.715V1.005C3.25939 1.16518 2.86475 1.46286 2.58557 1.85694C2.30639 2.25102 2.15645 2.72205 2.15645 3.205C2.15645 3.68795 2.30639 4.15898 2.58557 4.55306C2.86475 4.94714 3.25939 5.24482 3.715 5.405V8H5.28V5.405C5.73607 5.24529 6.13123 4.94778 6.41081 4.55365C6.69039 4.15951 6.84057 3.68823 6.84057 3.205C6.84057 2.72177 6.69039 2.25049 6.41081 1.85635C6.13123 1.46222 5.73607 1.16471 5.28 1.005L5.277 1Z" fill="#1F1F1F" />
</svg>