<svg viewBox="0 0 16 16" fill="none" xmlns="http://www.w3.org/2000/svg">
  <g opacity="0.75">
    <path opacity="0.1" d="M14.5 2.5V13.5H1.5V2.5H14.5Z" fill="#1F1F1F" />
    <path d="M14.5 2H1.5L1 2.5V13.5L1.5 14H14.5L15 13.5V2.5L14.5 2ZM14 13H2V3H14V13Z" fill="#1F1F1F" />
  </g>
  <path d="M12 7V8H13V9H12V10H11V9H10V10H9V9H8V8H9V7H8V6H9V5H10V6H11V5H12V6H13V7H12ZM11 7H10V8H11V7Z" fill="#218D21" />
  <path d="M7.417 10.66C6.90812 10.9025 6.34839 11.0191 5.785 11C5.41035 11.0164 5.03644 10.9537 4.68769 10.8159C4.33893 10.678 4.02316 10.4682 3.761 10.2C3.50301 9.91855 3.30301 9.58901 3.17244 9.23022C3.04186 8.87144 2.98326 8.49044 3 8.109C2.9826 7.69536 3.04952 7.2825 3.19667 6.89553C3.34383 6.50856 3.56815 6.15556 3.856 5.858C4.13894 5.57472 4.47694 5.35244 4.84913 5.20487C5.22133 5.0573 5.61981 4.98757 6.02 5C6.49803 4.98408 6.97432 5.06539 7.42 5.239V6.194C7.02678 5.96097 6.57705 5.84058 6.12 5.846C5.83759 5.8343 5.55584 5.88161 5.29275 5.98492C5.02965 6.08823 4.79099 6.24526 4.592 6.446C4.39243 6.66245 4.23792 6.91645 4.13749 7.19321C4.03705 7.46996 3.9927 7.76393 4.007 8.058C3.99286 8.33619 4.03391 8.61442 4.12779 8.87667C4.22167 9.13892 4.36652 9.37999 4.554 9.586C4.74029 9.77624 4.96448 9.9252 5.21203 10.0232C5.45959 10.1212 5.72498 10.1661 5.991 10.155C6.49381 10.1674 6.98923 10.0322 7.416 9.766L7.417 10.66Z" fill="#218D21" />
</svg>