<svg viewBox="0 0 16 16" fill="none" xmlns="http://www.w3.org/2000/svg">
  <g opacity="0.75">
    <path opacity="0.1" d="M14.5 2.5V13.5H1.5V2.5H14.5Z" fill="#1F1F1F" />
    <path d="M14.5 2H1.5L1 2.5V13.5L1.5 14H14.5L15 13.5V2.5L14.5 2ZM14 13H2V3H14V13Z" fill="#1F1F1F" />
  </g>
  <path d="M6.846 8.812C6.88186 9.39185 6.69999 9.9642 6.336 10.417C6.16559 10.6069 5.95529 10.7567 5.72016 10.8558C5.48504 10.9549 5.23092 11.0007 4.976 10.99C4.75494 10.9966 4.53439 10.9651 4.324 10.897V9.99C4.50169 10.1019 4.70922 10.157 4.919 10.148C5.561 10.148 5.88233 9.65133 5.883 8.658V5.087H6.846V8.812Z" fill="#BC4B09" />
  <path d="M8.284 10.662V9.67C8.38036 9.75609 8.4872 9.82968 8.602 9.889C8.72706 9.95474 8.85754 10.0096 8.992 10.053C9.12723 10.0957 9.26522 10.1291 9.405 10.153C9.53074 10.1759 9.6582 10.1879 9.786 10.189C10.099 10.2108 10.4117 10.1413 10.686 9.989C10.7826 9.92553 10.861 9.83805 10.9136 9.73515C10.9662 9.63225 10.9911 9.51745 10.986 9.402C10.9889 9.27539 10.9541 9.15079 10.886 9.044C10.8117 8.93463 10.7174 8.8403 10.608 8.766C10.4752 8.67422 10.3351 8.59361 10.189 8.525C10.029 8.448 9.858 8.368 9.673 8.284C9.473 8.179 9.293 8.072 9.123 7.964C8.96101 7.86314 8.81191 7.74292 8.679 7.606C8.55513 7.47703 8.45523 7.32702 8.384 7.163C8.30927 6.9793 8.27286 6.78227 8.277 6.584C8.27052 6.33476 8.33428 6.08872 8.461 5.874C8.58323 5.67282 8.74937 5.50189 8.947 5.374C9.15739 5.23835 9.38939 5.1396 9.633 5.082C9.88988 5.0188 10.1535 4.9869 10.418 4.987C10.8703 4.96037 11.323 5.0306 11.746 5.193V6.145C11.3711 5.89392 10.9258 5.76918 10.475 5.789C10.3317 5.78883 10.1888 5.80222 10.048 5.829C9.91455 5.85263 9.78586 5.89789 9.667 5.963C9.56204 6.02196 9.47099 6.10278 9.4 6.2C9.32778 6.30323 9.29094 6.42708 9.295 6.553C9.29158 6.67022 9.31954 6.78622 9.376 6.889C9.43682 6.99036 9.51742 7.07844 9.613 7.148C9.73225 7.23572 9.85948 7.31206 9.993 7.376C10.143 7.45067 10.3163 7.531 10.513 7.617C10.713 7.723 10.907 7.833 11.086 7.949C11.2577 8.05943 11.4167 8.18855 11.56 8.334C11.6934 8.47038 11.803 8.62825 11.884 8.801C11.9658 8.98668 12.0054 9.18818 12 9.391C12.0079 9.65074 11.9465 9.9079 11.822 10.136C11.7042 10.337 11.5395 10.5065 11.342 10.63C11.1284 10.7613 10.8935 10.8543 10.648 10.905C10.3752 10.9629 10.0969 10.9914 9.818 10.99C9.718 10.99 9.601 10.982 9.46 10.968C9.319 10.954 9.172 10.931 9.025 10.903C8.88296 10.8773 8.74242 10.8439 8.604 10.803C8.49168 10.77 8.38412 10.7226 8.284 10.662Z" fill="#BC4B09" />
</svg>