<svg viewBox="0 0 16 16" fill="none" xmlns="http://www.w3.org/2000/svg">
  <path d="M13.712 5.461C14.4945 6.9988 14.7026 8.7653 14.2991 10.4429C13.8956 12.1204 12.9069 13.5991 11.5107 14.6128C10.1146 15.6266 8.40252 16.1091 6.68243 15.9734C4.96235 15.8378 3.34707 15.093 2.12702 13.873C0.906961 12.6529 0.162168 11.0376 0.02655 9.31757C-0.109068 7.59748 0.373386 5.88544 1.38717 4.48926C2.40095 3.09308 3.87955 2.10436 5.55713 1.70085C7.2347 1.29735 9.0012 1.50554 10.539 2.288C10.6238 1.79076 10.8437 1.32641 11.1746 0.945749C11.5056 0.565092 11.9349 0.282796 12.4155 0.129747C12.8961 -0.0233031 13.4096 -0.0412102 13.8997 0.0779847C14.3899 0.197179 14.8378 0.448884 15.1944 0.80556C15.5511 1.16224 15.8028 1.61014 15.922 2.10027C16.0412 2.5904 16.0233 3.10387 15.8703 3.58451C15.7172 4.06514 15.4349 4.49443 15.0543 4.82539C14.6736 5.15635 14.2092 5.37624 13.712 5.461V5.461Z" fill="white" />
  <path d="M5.48 6.71L3 4.23C3.24884 4.00429 3.51648 3.80022 3.8 3.62L5.6 6.611C5.557 6.641 5.519 6.677 5.48 6.71ZM4.756 9.971L1.78 11.81C1.30067 10.9485 1.0333 9.9853 1 9H4.5C4.52349 9.33689 4.61034 9.66632 4.756 9.971V9.971ZM8.573 11.137L10.38 14.12C9.55386 14.6138 8.62422 14.9088 7.6645 14.9817C6.70478 15.0546 5.74125 14.9034 4.85 14.54L6.2 11.322C6.51753 11.4518 6.85696 11.5197 7.2 11.522H7.216C7.69442 11.5159 8.16268 11.3831 8.573 11.137V11.137Z" fill="#93D500" />
  <path d="M5.248 10.684L2.8 13.17C2.45783 12.8168 2.15904 12.424 1.91 12L4.867 10.173C4.9736 10.3576 5.10148 10.5291 5.248 10.684V10.684ZM5.781 6.489L4 3.48C4.95144 2.908 6.03986 2.60394 7.15 2.6V6.084C6.66549 6.09303 6.19244 6.23298 5.781 6.489V6.489ZM9.918 8.81H13.4C13.401 9.61785 13.2425 10.418 12.9336 11.1644C12.6247 11.9109 12.1715 12.5891 11.6 13.16L9.142 10.7C9.63944 10.1968 9.91828 9.5176 9.918 8.81V8.81Z" fill="#6BA43A" />
  <path d="M4.484 8.78H1C1.0048 7.13995 1.65922 5.56861 2.82 4.41L5.293 6.865C5.285 6.873 5.274 6.879 5.266 6.888C4.76625 7.39101 4.48522 8.07094 4.484 8.78V8.78ZM7.45 6.1V2.61C8.47531 2.65056 9.47337 2.9517 10.35 3.485L7.655 6.12C7.589 6.109 7.518 6.109 7.45 6.1ZM5.925 11.187L4.62 14.44C4.02798 14.1607 3.48177 13.7932 3 13.35L5.465 10.876C5.60737 10.995 5.7615 11.0992 5.925 11.187V11.187ZM12.536 5.681C13.0585 6.55349 13.3522 7.54375 13.39 8.56H9.9C9.892 8.467 9.891 8.374 9.874 8.283L12.536 5.681ZM8.947 10.868L11.42 13.35C11.1646 13.5884 10.8904 13.8057 10.6 14L8.8 10.99C8.852 10.952 8.9 10.909 8.947 10.868Z" fill="#4D5A31" />
  <path d="M15 2.72C15 2.94587 14.9555 3.16954 14.8691 3.37822C14.7826 3.5869 14.6559 3.77651 14.4962 3.93622C14.3365 4.09594 14.1469 4.22263 13.9382 4.30907C13.7295 4.39551 13.5059 4.44 13.28 4.44V4.44C13.0247 4.44029 12.7724 4.38572 12.54 4.28L8.73 8C8.9056 8.33282 8.96754 8.71394 8.9064 9.08524C8.84525 9.45654 8.66436 9.79767 8.39131 10.0566C8.11827 10.3155 7.76803 10.4781 7.39401 10.5195C7.01999 10.5609 6.64269 10.4788 6.31965 10.2858C5.9966 10.0928 5.74552 9.79949 5.60468 9.45053C5.46385 9.10157 5.44099 8.71613 5.53958 8.35298C5.63818 7.98982 5.85282 7.66886 6.15079 7.43903C6.44876 7.20921 6.81371 7.08312 7.19 7.08H7.2C7.45506 7.08178 7.70699 7.13625 7.94 7.24L11.75 3.51C11.6207 3.26704 11.5553 2.99518 11.56 2.72C11.56 2.26383 11.7412 1.82634 12.0638 1.50378C12.3863 1.18121 12.8238 1 13.28 1C13.7362 1 14.1737 1.18121 14.4962 1.50378C14.8188 1.82634 15 2.26383 15 2.72V2.72Z" fill="#424143" />
</svg>