<svg viewBox="0 0 16 16" fill="none" xmlns="http://www.w3.org/2000/svg">
  <path opacity="0.1" d="M11.5 6V8H3.431L2.967 8.314L1.5 11.981V4.5H5.5L7 6H11.5Z" fill="#B27D00" />
  <path opacity="0.5" d="M14.5 8.5L12.5 13.5H1.5L3.5 8.5H14.5Z" fill="#B27D00" />
  <path opacity="0.25" d="M12 13H11V9H12V13Z" fill="#B27D00" />
  <path d="M14.431 8H12V5.5L11.5 5H11V8H3.431L2.967 8.314L2 10.8V5H5.293L6.293 6H8V5H6.707L5.854 4.146L5.5 4H1.5L1 4.5V13.364L1.431 14H12.431L12.895 13.686L14.895 8.686L14.431 8ZM12.092 13H2.169L3.769 9H13.691L12.092 13Z" fill="#B27D00" />
  <path d="M14.854 2.146V2.854L12.854 4.854L12.147 4.146L13.293 3H12C11.4696 3 10.9609 3.21071 10.5858 3.58579C10.2107 3.96086 10 4.46957 10 5V6H9V5C9 4.20435 9.31607 3.44129 9.87868 2.87868C10.4413 2.31607 11.2044 2 12 2H13.293L12.147 0.854L12.854 0.146L14.854 2.146Z" fill="#006CBE" />
</svg>