<svg viewBox="0 0 16 16" fill="none" xmlns="http://www.w3.org/2000/svg">
  <g opacity="0.75">
    <path opacity="0.1" d="M15.5 2.5V13.5H0.5V2.5H15.5Z" fill="#1F1F1F" />
    <path d="M15.5 2H0.5L0 2.5V13.5L0.5 14H15.5L16 13.5V2.5L15.5 2ZM15 13H1V3H15V13Z" fill="#1F1F1F" />
  </g>
  <path d="M4.458 8.933V11H3.107V5H5.224C6.736 5 7.492 5.63733 7.492 6.912C7.50118 7.18907 7.44735 7.4646 7.33459 7.71785C7.22182 7.97109 7.05305 8.19544 6.841 8.374C6.34864 8.76713 5.72919 8.96602 5.1 8.933H4.458ZM4.458 6.038V7.908H4.99C5.70867 7.908 6.06833 7.59267 6.069 6.962C6.069 6.346 5.70933 6.038 4.99 6.038H4.458ZM13.143 5L11.189 8.866V11H9.838V8.891L7.934 5H9.478L10.445 7.238C10.461 7.28 10.507 7.444 10.583 7.728H10.6C10.6259 7.56606 10.6695 7.40744 10.73 7.255L11.712 5H13.143Z" fill="#B27D00" />
</svg>