<svg xmlns="http://www.w3.org/2000/svg" width="18" height="18" viewBox="0 0 18 18">
  <defs>
    <linearGradient id="e70dda7c-4d95-4643-87f0-4ed91e71e3ea" x1="5.906" y1="0.5" x2="5.906" y2="17.5" gradientUnits="userSpaceOnUse">
      <stop offset="0" stop-color="#5ea0ef" />
      <stop offset="1" stop-color="#0078d4" />
    </linearGradient>
    <linearGradient id="aac160f1-871d-4e6a-9314-bd8149ad51c2" x1="-557.618" y1="66.613" x2="-557.618" y2="72.118" gradientTransform="translate(564 -54.484)" gradientUnits="userSpaceOnUse">
      <stop offset="0.001" stop-color="#b4ec36" />
      <stop offset="1" stop-color="#86d633" />
    </linearGradient>
    <linearGradient id="f9c957d1-3900-4645-b702-312f131a6b50" x1="-551.104" y1="61.752" x2="-551.104" y2="70.206" gradientTransform="translate(564 -54.484)" gradientUnits="userSpaceOnUse">
      <stop offset="0" stop-color="#50e6ff" />
      <stop offset="1" stop-color="#32bedd" />
    </linearGradient>
  </defs>
  <g id="e8fcdebd-937d-452c-aa5c-4f167e5df715">
    <g>
      <path d="M10.63,15.132l-.022.01-.132.059a.423.423,0,0,1-.166.035.41.41,0,0,1-.292-.122l-.686-.692a.411.411,0,0,1-.08-.465l.46-.969-.142-.37-.847-.28-.136-.04a.41.41,0,0,1-.295-.394v-.979a.412.412,0,0,1,.272-.387l1.008-.364.134-.325-.422-.8,0-.007-.067-.133a.412.412,0,0,1,.078-.476l.691-.685a.408.408,0,0,1,.465-.08l.449.213,0-6.81a.067.067,0,0,0,0-.02.56.56,0,0,0-.57-.55H1.461a.56.56,0,0,0-.549.57V16.94a.561.561,0,0,0,.561.56h8.87a.56.56,0,0,0,.549-.57l0-1.932Z" fill="url(#e70dda7c-4d95-4643-87f0-4ed91e71e3ea)" />
      <path d="M2.331,6.46A1.081,1.081,0,0,1,3.41,5.379H8.461a1.079,1.079,0,0,1,1.05,1.08h0a1.08,1.08,0,0,1-1.07,1.09H3.431a1.089,1.089,0,0,1-1.1-1.08Z" fill="#003067" />
      <path d="M2.331,3.24a1.091,1.091,0,0,1,1.09-1.091h5.04a1.079,1.079,0,0,1,1.05,1.09h0a1.079,1.079,0,0,1-1.08,1.08h-5a1.079,1.079,0,0,1-1.1-1.06C2.332,3.254,2.331,3.247,2.331,3.24Z" fill="#003067" />
      <circle cx="3.501" cy="3.24" r="0.73" fill="#50e6ff" />
      <circle cx="3.501" cy="6.46" r="0.73" fill="#50e6ff" />
      <path d="M8.533,14.48v-.5h0l-.511-.172-.132-.344.259-.519v-.059l-.159-.159L7.8,12.533H7.731l-.5.251-.342-.1-.218-.56h-.5l-.168.509-.376.168-.56-.318L4.7,12.81v.066l.251.494-.142.343-.578.248v.519h.075l.532.175L4.98,15l-.266.577.352.351h.066l.5-.251.344.143.217.6h.493v-.075l.176-.527.332-.143.586.266.351-.351v-.067l-.25-.492.092-.351Zm-2.1.427a.676.676,0,0,1-.711-.639v-.025a.7.7,0,1,1,1.406-.017v.008h0a.7.7,0,0,1-.695.67Z" fill="url(#aac160f1-871d-4e6a-9314-bd8149ad51c2)" />
      <path d="M17.089,11.862v-.979l-.051-.042-1.02-.351-.257-.669.518-1,.051-.109-.31-.332-.368-.393-.133.067-.979.5-.673-.194-.43-1.089h-.968l-.05.05-.332,1-.686.259-1.129-.535-.69.686.066.133.511.97-.276.672-1.18.426V11.9l.142.042,1.038.343.276.715-.535,1.129.686.692.133-.059.98-.5.67.276.427,1.18h.987v-.21l.343-1.037.664-.276,1.147.527.685-.686-.066-.133L15.8,13l.192-.686Zm-4.109.9a1.373,1.373,0,1,1,1.364-1.382h0A1.382,1.382,0,0,1,12.98,12.767Z" fill="url(#f9c957d1-3900-4645-b702-312f131a6b50)" />
    </g>
  </g>
</svg>