<svg viewBox="0 0 16 16" fill="none" xmlns="http://www.w3.org/2000/svg">
  <g opacity="0.75">
    <path opacity="0.1" d="M13 3.5H12C12 3.36739 11.9473 3.24021 11.8536 3.14645C11.7598 3.05268 11.6326 3 11.5 3H5.5C5.36739 3 5.24021 3.05268 5.14645 3.14645C5.05268 3.24021 5 3.36739 5 3.5H4C4 3.10218 4.15804 2.72064 4.43934 2.43934C4.72064 2.15804 5.10218 2 5.5 2H11.5C11.8978 2 12.2794 2.15804 12.5607 2.43934C12.842 2.72064 13 3.10218 13 3.5V3.5Z" fill="#1F1F1F" />
    <path opacity="0.1" d="M12.5 2.5V14.5H4.5V2.5C4.5 2.23478 4.60536 1.98043 4.79289 1.79289C4.98043 1.60536 5.23478 1.5 5.5 1.5H11.5C11.7652 1.5 12.0196 1.60536 12.2071 1.79289C12.3946 1.98043 12.5 2.23478 12.5 2.5Z" fill="#1F1F1F" />
    <path d="M11.5 1H5.5C5.10218 1 4.72064 1.15804 4.43934 1.43934C4.15804 1.72064 4 2.10218 4 2.5V14.5L4.5 15H12.5L13 14.5V2.5C13 2.10218 12.842 1.72064 12.5607 1.43934C12.2794 1.15804 11.8978 1 11.5 1ZM12 14H5V2.5C5 2.36739 5.05268 2.24021 5.14645 2.14645C5.24021 2.05268 5.36739 2 5.5 2H11.5C11.6326 2 11.7598 2.05268 11.8536 2.14645C11.9473 2.24021 12 2.36739 12 2.5V14Z" fill="#1F1F1F" />
  </g>
  <path opacity="0.1" d="M10.5 5V6H6.5V5H10.5ZM6.5 12H10.5V11H6.5V12ZM6.5 14H10.5V13H6.5V14Z" fill="#1F1F1F" />
  <path d="M10.5 4V5H6.5V4H10.5ZM6.5 11H10.5V10H6.5V11ZM6.5 13H10.5V12H6.5V13Z" fill="#1F1F1F" />
</svg>